<?xml version="1.0" encoding="utf-8"?>
<!-- Generator: Adobe Illustrator 15.1.0, SVG Export Plug-In . SVG Version: 6.00 Build 0)  -->
<!DOCTYPE svg PUBLIC "-//W3C//DTD SVG 1.1//EN" "http://www.w3.org/Graphics/SVG/1.1/DTD/svg11.dtd">
<svg version="1.1" id="Layer_1" xmlns="http://www.w3.org/2000/svg" xmlns:xlink="http://www.w3.org/1999/xlink" x="0px" y="0px"
	 width="266.527px" height="61.11px" viewBox="0 0 266.527 61.11" enable-background="new 0 0 266.527 61.11" xml:space="preserve">
<g>
	<g>
		<path d="M61.102,30.551c0,16.854-13.678,30.56-30.549,30.56C13.678,61.11,0,47.405,0,30.551C0,13.678,13.678,0,30.553,0
			C47.424,0,61.102,13.678,61.102,30.551z"/>
		<path fill="#39B54A" d="M57.083,30.551c0,14.638-11.88,26.526-26.531,26.526c-14.654,0-26.531-11.889-26.531-26.526
			c0-14.652,11.876-26.531,26.531-26.531C45.203,4.02,57.083,15.898,57.083,30.551z"/>
		<g>
			<rect x="21.555" y="16.579" fill="#FFFFFF" width="3.436" height="3.434"/>
			<rect x="7.323" y="30.318" fill="#FFFFFF" width="3.436" height="3.435"/>
			<rect x="12.068" y="30.318" fill="#FFFFFF" width="3.434" height="3.435"/>
			<rect x="7.323" y="34.899" fill="#FFFFFF" width="3.436" height="3.431"/>
			<rect x="12.068" y="34.896" fill="#FFFFFF" width="3.434" height="3.434"/>
			<rect x="16.811" y="34.899" fill="#FFFFFF" width="3.436" height="3.431"/>
			<rect x="21.555" y="34.899" fill="#FFFFFF" width="3.436" height="3.431"/>
			<rect x="26.299" y="34.896" fill="#FFFFFF" width="3.434" height="3.434"/>
			<rect x="31.042" y="34.896" fill="#FFFFFF" width="3.436" height="3.434"/>
			<rect x="35.786" y="34.899" fill="#FFFFFF" width="3.434" height="3.431"/>
			<rect x="40.53" y="34.899" fill="#FFFFFF" width="3.434" height="3.431"/>
			<rect x="45.273" y="34.899" fill="#FFFFFF" width="3.434" height="3.431"/>
			<rect x="50.017" y="34.899" fill="#FFFFFF" width="3.434" height="3.431"/>
			<rect x="16.811" y="30.318" fill="#FFFFFF" width="3.436" height="3.435"/>
			<rect x="21.555" y="30.318" fill="#FFFFFF" width="3.436" height="3.435"/>
			<rect x="26.299" y="30.318" fill="#FFFFFF" width="3.434" height="3.435"/>
			<rect x="31.042" y="30.318" fill="#FFFFFF" width="3.436" height="3.435"/>
			<rect x="35.786" y="30.318" fill="#FFFFFF" width="3.434" height="3.435"/>
			<rect x="40.53" y="30.318" fill="#FFFFFF" width="3.434" height="3.435"/>
			<rect x="45.273" y="30.318" fill="#FFFFFF" width="3.434" height="3.435"/>
			<rect x="50.017" y="30.318" fill="#FFFFFF" width="3.434" height="3.435"/>
			<rect x="7.323" y="21.158" fill="#FFFFFF" width="3.436" height="3.435"/>
			<rect x="7.323" y="25.739" fill="#FFFFFF" width="3.436" height="3.434"/>
			<rect x="12.068" y="25.739" fill="#FFFFFF" width="3.434" height="3.434"/>
			<rect x="16.811" y="25.739" fill="#FFFFFF" width="3.436" height="3.434"/>
			<rect x="21.555" y="25.739" fill="#FFFFFF" width="3.436" height="3.434"/>
			<rect x="26.299" y="25.739" fill="#FFFFFF" width="3.434" height="3.434"/>
			<rect x="31.042" y="25.739" fill="#FFFFFF" width="3.436" height="3.434"/>
			<rect x="35.786" y="25.739" fill="#FFFFFF" width="3.434" height="3.434"/>
			<rect x="40.53" y="25.739" fill="#FFFFFF" width="3.434" height="3.434"/>
			<rect x="45.273" y="25.739" fill="#FFFFFF" width="3.434" height="3.434"/>
			<rect x="16.811" y="21.158" fill="#FFFFFF" width="3.436" height="3.435"/>
			<rect x="21.555" y="21.157" fill="#FFFFFF" width="3.436" height="3.436"/>
			<rect x="26.299" y="21.158" fill="#FFFFFF" width="3.434" height="3.435"/>
			<rect x="31.042" y="21.158" fill="#FFFFFF" width="3.436" height="3.435"/>
			<rect x="40.53" y="21.158" fill="#FFFFFF" width="3.434" height="3.435"/>
			<rect x="45.273" y="21.157" fill="#FFFFFF" width="3.434" height="3.436"/>
			<rect x="16.811" y="16.579" fill="#FFFFFF" width="3.436" height="3.434"/>
			<rect x="7.323" y="16.579" fill="#FFFFFF" width="3.436" height="3.434"/>
			<rect x="31.042" y="16.579" fill="#FFFFFF" width="3.436" height="3.434"/>
			<rect x="45.273" y="16.579" fill="#FFFFFF" width="3.434" height="3.434"/>
			<rect x="16.811" y="11.998" fill="#FFFFFF" width="3.436" height="3.436"/>
		</g>
		<path d="M40.835,39.385c0.108-0.601,0.167-1.221,0.167-1.849c0-5.771-4.68-10.45-10.45-10.45c-5.772,0-10.454,4.678-10.454,10.45
			c0,0.628,0.061,1.248,0.167,1.849H2.471c4.766,10.763,15.542,18.301,28.082,18.301c12.538,0,23.314-7.538,28.08-18.301H40.835z"/>
		<path fill="#FFFFFF" d="M30.553,2.384c-15.557,0-28.168,12.61-28.168,28.167c0,15.54,12.612,28.166,28.168,28.166
			c15.555,0,28.165-12.626,28.165-28.166C58.717,14.994,46.107,2.384,30.553,2.384z M30.553,57.077
			c-14.654,0-26.533-11.889-26.533-26.526C4.02,15.898,15.898,4.02,30.553,4.02c14.652,0,26.531,11.878,26.531,26.531
			C57.083,45.188,45.205,57.077,30.553,57.077z"/>
		<path fill="#F5F5F5" d="M37.67,37.536c0,3.926-3.187,7.106-7.117,7.106c-3.932,0-7.118-3.181-7.118-7.106
			c0-3.931,3.186-7.116,7.118-7.116C34.483,30.42,37.67,33.605,37.67,37.536z"/>
		<circle fill="#F5F5F5" cx="23.327" cy="46.966" r="1.64"/>
		<circle fill="#F5F5F5" cx="37.142" cy="46.966" r="1.639"/>
		<polygon points="22.954,12.475 26.13,29.2 28.99,28.354 		"/>
		<linearGradient id="SVGID_1_" gradientUnits="userSpaceOnUse" x1="30.5508" y1="58.6719" x2="30.5508" y2="32.2636">
			<stop  offset="0" style="stop-color:#BCBEC0"/>
			<stop  offset="1" style="stop-color:#000000"/>
		</linearGradient>
		<path display="none" fill="url(#SVGID_1_)" d="M30.553,4.02c14.65,0,26.531,11.878,26.531,26.531
			c0,14.638-11.88,26.526-26.531,26.526c-14.654,0-26.531-11.889-26.531-26.526C4.022,15.898,15.898,4.02,30.553,4.02 M30.553,2.506
			c-7.493,0-14.533,2.917-19.833,8.214c-5.296,5.297-8.213,12.34-8.213,19.831c0,7.492,2.917,14.518,8.213,19.812
			c5.3,5.306,12.34,8.233,19.833,8.233c7.489,0,14.533-2.928,19.829-8.233c5.297-5.294,8.213-12.319,8.213-19.812
			c0-7.491-2.916-14.533-8.213-19.831C45.085,5.423,38.042,2.506,30.553,2.506L30.553,2.506z"/>
		<g>
			<path d="M13.876,5.097c-2.844-2.534-7.206-2.384-9.864,0.388c-2.66,2.772-2.63,7.135,0.019,9.874L13.876,5.097z"/>
			<path d="M47.177,5.097c2.844-2.534,7.206-2.384,9.866,0.388c2.66,2.772,2.63,7.135-0.021,9.874L47.177,5.097z"/>
			<path d="M47.181,55.706c2.843,2.541,7.206,2.39,9.865-0.392c2.658-2.779,2.629-7.141-0.02-9.874L47.181,55.706z"/>
			<path d="M13.88,55.706c-2.844,2.541-7.206,2.39-9.866-0.392c-2.66-2.779-2.63-7.141,0.02-9.874L13.88,55.706z"/>
		</g>
		<path d="M30.962,28.618l-6.706-16.521l-0.011,0.003c-0.053-0.326-0.333-0.576-0.674-0.576c-0.377,0-0.684,0.306-0.684,0.685
			c0,0.111,0.03,0.215,0.076,0.309l2.439,18.389L30.962,28.618z"/>
	</g>
	<g>
		<rect x="73.539" y="9.317" fill="#39B54A" width="11.112" height="28.818"/>
		<rect x="73.539" y="39.363" width="11.112" height="12.582"/>
		<polygon fill="#39B54A" points="99.103,34.403 112.363,34.403 112.363,25.683 99.103,25.683 99.103,18.396 113.259,18.396 
			113.259,9.317 87.995,9.317 87.995,38.135 99.103,38.135 		"/>
		<polygon points="87.995,51.945 113.797,51.945 113.797,42.872 99.103,42.872 99.103,39.363 87.995,39.363 		"/>
		<path fill="#39B54A" d="M143.157,33.359c-0.897-1.614-2.024-2.917-3.377-3.914c-1.352-0.995-2.807-1.801-4.358-2.419
			c-1.555-0.617-3.009-1.224-4.362-1.823c-1.354-0.596-2.479-1.302-3.375-2.119c-0.895-0.815-1.344-1.921-1.344-3.315
			c0-0.955,0.278-1.823,0.835-2.598c0.559-0.776,1.434-1.165,2.628-1.165c1.077,0,1.871,0.448,2.39,1.345
			c0.519,0.895,0.777,1.98,0.777,3.254v1.016h10.395c0-4.579-1.088-7.914-3.255-10.005c-2.173-2.091-5.688-3.135-10.546-3.135
			c-4.699,0-8.202,1.134-10.513,3.404c-2.309,2.27-3.463,5.574-3.463,9.915c0,2.508,0.428,4.541,1.283,6.092
			c0.856,1.553,1.932,2.808,3.226,3.763c1.294,0.958,2.698,1.733,4.211,2.329c1.513,0.6,2.915,1.188,4.211,1.763
			c1.292,0.579,2.368,1.275,3.224,2.088c0.102,0.098,0.193,0.199,0.281,0.3h12.408C144.291,36.238,143.868,34.641,143.157,33.359z"
			/>
		<path d="M133.028,41.145c0,1.154-0.307,2.126-0.924,2.922c-0.618,0.796-1.502,1.193-2.658,1.193c-1.074,0-1.952-0.367-2.628-1.104
			c-0.675-0.737-1.015-2.017-1.015-3.848v-0.944h-10.75v1.424c0,2.225,0.318,4.094,0.954,5.605c0.638,1.511,1.563,2.736,2.777,3.671
			c1.215,0.936,2.708,1.595,4.479,1.972c1.772,0.379,3.814,0.566,6.123,0.566c4.899,0,8.642-1.022,11.231-3.077
			c2.587-2.048,3.883-5.34,3.883-9.871c0-0.1-0.006-0.191-0.006-0.29h-11.757C132.931,39.893,133.028,40.488,133.028,41.145z"/>
		<path fill="#39B54A" d="M171.616,33.747c1.592-1.593,2.867-3.365,3.821-5.316c0.958-1.951,1.436-4.36,1.436-7.229
			c0-1.592-0.189-3.085-0.568-4.48c-0.38-1.393-1.075-2.617-2.088-3.673c-1.019-1.055-2.402-1.881-4.152-2.479
			c-1.754-0.597-4.025-0.895-6.813-0.895c-2.906,0-5.255,0.339-7.044,1.016c-1.794,0.676-3.188,1.642-4.182,2.897
			c-0.996,1.253-1.675,2.767-2.031,4.539c-0.358,1.772-0.558,3.732-0.598,5.883h10.394v-1.792c0-1.194,0.09-2.159,0.267-2.897
			c0.18-0.735,0.421-1.304,0.717-1.703c0.3-0.397,0.628-0.665,0.987-0.806c0.358-0.139,0.736-0.209,1.134-0.209
			c0.875,0,1.573,0.338,2.092,1.015c0.515,0.678,0.777,1.912,0.777,3.704c0,1.593-0.233,2.877-0.688,3.853
			c-0.458,0.975-1.224,2-2.301,3.076l-7.408,7.526c-0.754,0.779-1.433,1.566-2.039,2.356h13.774L171.616,33.747z"/>
		<path d="M150.385,43.499c-0.897,2.645-1.348,5.459-1.348,8.446h27.836v-8.358h-14.575c0.2-0.632,0.587-1.25,1.166-1.846
			c0.577-0.597,1.104-1.132,1.58-1.61l0.793-0.768h-13.388C151.548,40.724,150.857,42.102,150.385,43.499z"/>
		<path d="M195.509,44.274c-0.521,1.054-1.356,1.581-2.509,1.581c-1.156,0-1.991-0.527-2.51-1.581
			c-0.45-0.91-0.704-2.552-0.761-4.911h-10.671c0.116,0.878,0.25,1.703,0.412,2.467c0.577,2.765,1.452,4.948,2.628,6.561
			c1.175,1.611,2.666,2.72,4.48,3.315c1.813,0.598,3.95,0.896,6.421,0.896c2.467,0,4.609-0.298,6.419-0.896
			c1.813-0.596,3.307-1.704,4.481-3.315c1.174-1.612,2.049-3.796,2.628-6.561c0.158-0.764,0.296-1.589,0.41-2.467h-10.667
			C196.211,41.723,195.955,43.364,195.509,44.274z"/>
		<path fill="#39B54A" d="M189.715,24.249c0-2.985,0.257-5.007,0.775-6.062c0.519-1.054,1.354-1.583,2.51-1.583
			c1.152,0,1.988,0.529,2.509,1.583c0.517,1.055,0.775,3.077,0.775,6.062v13.886h10.794c0.21-2.023,0.316-4.319,0.316-6.897
			c0-4.26-0.289-7.784-0.866-10.572c-0.579-2.787-1.454-4.996-2.628-6.63c-1.175-1.632-2.668-2.767-4.481-3.404
			c-1.81-0.637-3.952-0.956-6.419-0.956c-2.471,0-4.608,0.319-6.421,0.956c-1.814,0.637-3.306,1.772-4.48,3.404
			c-1.176,1.634-2.051,3.844-2.628,6.63c-0.579,2.788-0.868,6.312-0.868,10.572c0,2.578,0.106,4.874,0.314,6.897h10.798V24.249z"/>
		<path d="M225.074,44.274c-0.519,1.054-1.353,1.581-2.509,1.581s-1.991-0.527-2.508-1.581c-0.448-0.91-0.704-2.552-0.765-4.911
			h-10.671c0.118,0.878,0.256,1.703,0.414,2.467c0.577,2.765,1.454,4.948,2.629,6.561c1.174,1.611,2.667,2.72,4.479,3.315
			c1.811,0.598,3.95,0.896,6.421,0.896c2.47,0,4.608-0.298,6.421-0.896c1.811-0.596,3.305-1.704,4.479-3.315
			c1.175-1.612,2.051-3.796,2.628-6.561c0.158-0.764,0.297-1.589,0.41-2.467h-10.669C225.774,41.723,225.521,43.364,225.074,44.274z
			"/>
		<path fill="#39B54A" d="M219.278,24.249c0-2.985,0.261-5.007,0.779-6.062c0.517-1.054,1.352-1.583,2.508-1.583
			s1.99,0.529,2.509,1.583c0.517,1.055,0.775,3.077,0.775,6.062v13.886h10.798c0.208-2.023,0.314-4.319,0.314-6.897
			c0-4.26-0.29-7.784-0.868-10.572c-0.577-2.787-1.453-4.996-2.628-6.63c-1.175-1.632-2.669-2.767-4.479-3.404
			c-1.813-0.637-3.951-0.956-6.421-0.956c-2.471,0-4.61,0.319-6.421,0.956c-1.813,0.637-3.306,1.772-4.479,3.404
			c-1.175,1.634-2.052,3.844-2.629,6.63c-0.577,2.788-0.866,6.312-0.866,10.572c0,2.578,0.106,4.874,0.313,6.897h10.796V24.249z"/>
		<path d="M254.64,44.274c-0.519,1.054-1.354,1.581-2.507,1.581c-1.158,0-1.995-0.527-2.514-1.581
			c-0.446-0.91-0.7-2.552-0.757-4.911h-10.671c0.114,0.878,0.25,1.703,0.412,2.467c0.577,2.765,1.452,4.948,2.627,6.561
			c1.173,1.611,2.667,2.72,4.479,3.315c1.811,0.598,3.952,0.896,6.423,0.896c2.467,0,4.606-0.298,6.419-0.896
			c1.811-0.596,3.305-1.704,4.481-3.315c1.175-1.612,2.049-3.796,2.627-6.561c0.157-0.764,0.296-1.589,0.411-2.467H255.4
			C255.344,41.723,255.086,43.364,254.64,44.274z"/>
		<path fill="#39B54A" d="M248.846,24.249c0-2.985,0.259-5.007,0.773-6.062c0.519-1.054,1.355-1.583,2.514-1.583
			c1.152,0,1.988,0.529,2.507,1.583c0.519,1.055,0.777,3.077,0.777,6.062v13.886h10.794c0.21-2.023,0.316-4.319,0.316-6.897
			c0-4.26-0.292-7.784-0.867-10.572c-0.578-2.787-1.452-4.996-2.627-6.63c-1.177-1.632-2.671-2.767-4.481-3.404
			c-1.813-0.637-3.952-0.956-6.419-0.956c-2.471,0-4.612,0.319-6.423,0.956c-1.813,0.637-3.307,1.772-4.479,3.404
			c-1.175,1.634-2.05,3.844-2.627,6.63c-0.579,2.788-0.868,6.312-0.868,10.572c0,2.578,0.107,4.874,0.316,6.897h10.794V24.249z"/>
	</g>
</g>
</svg>
